<svg width="256" height="256" viewBox="0 0 256 256" fill="none" xmlns="http://www.w3.org/2000/svg">
  <!-- Document Body with rounded corners -->
  <path d="M48 24C48 15.1634 55.1634 8 64 8H168L208 48V232C208 240.837 200.837 248 192 248H64C55.1634 248 48 240.837 48 232V24Z" fill="#4285F4"/>
  <!-- Folded Corner (Dog-ear) -->
  <path d="M168 8V40C168 44.4183 171.582 48 176 48H208L168 8Z" fill="#D2E3FC"/>
  <!-- Text Lines -->
  <rect x="80" y="110" width="96" height="14" rx="2" fill="white"/>
  <rect x="80" y="140" width="96" height="14" rx="2" fill="white"/>
  <rect x="80" y="170" width="96" height="14" rx="2" fill="white"/>
  <rect x="80" y="200" width="60" height="14" rx="2" fill="white"/>
</svg>